<svg xmlns="http://www.w3.org/2000/svg" width="550.042" height="456.529" viewBox="0 0 550.042 456.529">
  <g id="グループ_4" data-name="グループ 4" transform="translate(-258.541 -271.568)">
    <g id="楕円形_2" data-name="楕円形 2" transform="translate(265 657)" fill="#f0f0eb" stroke="#707070" stroke-width="1">
      <ellipse cx="23.5" cy="25" rx="23.5" ry="25" stroke="none"/>
      <ellipse cx="23.5" cy="25" rx="23" ry="24.5" fill="none"/>
    </g>
    <g id="長方形_4" data-name="長方形 4" transform="translate(288 445)" fill="#f0f0eb" stroke="#707070" stroke-width="1">
      <rect width="492" height="212" stroke="none"/>
      <rect x="0.5" y="0.5" width="491" height="211" fill="none"/>
    </g>
    <g id="楕円形_5" data-name="楕円形 5" transform="translate(396 381)" fill="#f0f0eb" stroke="#707070" stroke-width="1">
      <ellipse cx="23.5" cy="22" rx="23.5" ry="22" stroke="none"/>
      <ellipse cx="23.5" cy="22" rx="23" ry="21.5" fill="none"/>
    </g>
    <g id="楕円形_6" data-name="楕円形 6" transform="translate(598 381)" fill="#f0f0eb" stroke="#707070" stroke-width="1">
      <ellipse cx="23.5" cy="22" rx="23.5" ry="22" stroke="none"/>
      <ellipse cx="23.5" cy="22" rx="23" ry="21.5" fill="none"/>
    </g>
    <g id="楕円形_4" data-name="楕円形 4" transform="translate(508 302)" fill="#f2f252" stroke="#707070" stroke-width="1">
      <ellipse cx="11" cy="12.5" rx="11" ry="12.5" stroke="none"/>
      <ellipse cx="11" cy="12.5" rx="10.5" ry="12" fill="none"/>
    </g>
    <g id="楕円形_3" data-name="楕円形 3" transform="translate(719 302)" fill="#f2f252" stroke="#707070" stroke-width="1">
      <ellipse cx="11" cy="12.5" rx="11" ry="12.5" stroke="none"/>
      <ellipse cx="11" cy="12.5" rx="10.5" ry="12" fill="none"/>
    </g>
    <g id="楕円形_1" data-name="楕円形 1" transform="translate(315 302)" fill="#f2f252" stroke="#707070" stroke-width="1">
      <ellipse cx="11" cy="12.5" rx="11" ry="12.5" stroke="none"/>
      <ellipse cx="11" cy="12.5" rx="10.5" ry="12" fill="none"/>
    </g>
    <g id="Icon" transform="translate(497 442)">
      <g id="グループ_1" data-name="グループ 1" transform="translate(-463 -489)">
        <path id="パス_1" data-name="パス 1" d="M393.907,469.081c9.8-.221,18.433-8.06,18.2-18.2-.219-9.8-8.058-18.432-18.2-18.2a18.383,18.383,0,0,0-18.2,18.2C375.923,460.678,383.762,469.309,393.907,469.081Z" fill="#f65b5c"/>
        <path id="パス_2" data-name="パス 2" d="M597.152,469.081c9.8-.221,18.433-8.06,18.2-18.2-.219-9.8-8.058-18.432-18.2-18.2a18.383,18.383,0,0,0-18.2,18.2C579.168,460.678,587.007,469.309,597.152,469.081Z" fill="#f65b5c"/>
        <path id="パス_3" data-name="パス 3" d="M276.593,499.993v43.9c.317,37.635,31.285,69.731,69.409,69.409A70.108,70.108,0,0,0,415.411,543.9c.069-8.169,6.8-12.024,13.11-11.566,6.313-.458,13.039,3.4,13.108,11.566.318,37.635,31.286,69.731,69.41,69.409A70.108,70.108,0,0,0,580.448,543.9c-.066-7.783,5.967-11.647,12-11.6,6.032-.044,12.066,3.82,12,11.6.317,37.635,31.285,69.731,69.408,69.409a70.122,70.122,0,0,0,68.887-61.544V499.007c0,.291.723,1.672.105-.007H276.838a1.722,1.722,0,0,1-.246.206C276.6,499.451,276.593,499.881,276.593,499.993Z" fill="#6ed6d6"/>
        <path id="パス_4" data-name="パス 4" d="M759.954,710.768H258.868v40.245h501.6V710.768h-.514Z" fill="#f65b5c"/>
        <path id="パス_5" data-name="パス 5" d="M260.719,363.229C262.16,376.4,271.363,387.9,284.863,390.4a30.5,30.5,0,0,0,34.467-19.9c6.172-18.111-8.771-35.794-20.1-48.42-4.2-4.681-12.771-4.681-16.971,0-8.541,9.518-19.092,21.782-21.317,35a12.606,12.606,0,0,0-.4,3.747A10.322,10.322,0,0,0,260.719,363.229Zm23.821-2.316c.078-.211.18-.519.315-.977.149-.4.239-.652.28-.785.318-.663.652-1.319.994-1.969a68.14,68.14,0,0,1,4.611-7.416q1.517,2.2,2.928,4.472c.788,1.273,1.5,2.587,2.2,3.913.172.336.325.68.487,1.02-.346-.663.421,1.247.539,1.638.021.1.037.167.055.248,0,.375-.015.75-.048,1.125.028-.777-.278.8-.585,1.4-1.041,2.043-2.62,2.87-4.769,3.433,1.61-.422-2.054-.385-2.009-.144-.722-.251-1-.307-.834-.167-.662-.408-1.846-1.119-1.765-.954q-.558-.513-1.074-1.071a8.722,8.722,0,0,0-.688-1.1C284.311,362.149,284.588,362.505,284.54,360.913Z" fill="#f65b5c"/>
        <path id="パス_6" data-name="パス 6" d="M774.468,758.925V701.336c0-7.543-6.166-12.132-12.938-13.531-1.586-.328-3.207-.573-4.849-.764.037-.413.062-.835.062-1.273V552.88c.125-1.135.248-2.271.334-3.41.142-1.854.173-3.715.189-5.574a12.756,12.756,0,0,0-.523-3.8V499.252c0-12.365-9.315-23.394-21.885-24.171-8.81-.545-17.771-.081-26.59-.081h-1.525V408c0-15.477-24-15.477-24,0v67H621.427a44.243,44.243,0,0,0,7.929-24.124c.526-23.332-19.66-41.7-42.2-42.2-22.722-.511-40.729,18.622-42.122,40.446a14.112,14.112,0,0,0-.082,1.758,13.877,13.877,0,0,0,.08,1.743A43.167,43.167,0,0,0,552.847,475h-55.2V408c0-15.477-24-15.477-24,0v67H418.182a44.242,44.242,0,0,0,7.929-24.124c.526-23.332-19.66-41.7-42.2-42.2-22.722-.511-40.729,18.622-42.122,40.446a14.118,14.118,0,0,0-.082,1.758,13.889,13.889,0,0,0,.08,1.743A43.159,43.159,0,0,0,349.6,475H302.743V408c0-15.477-24-15.477-24,0v67H265.809c-12.955,0-23.216,11.317-23.216,24.028V685.655c0,.468.014.931.038,1.389-7.433.719-14.556,3.186-17.334,11.014-1.4,3.937-.429,9.77-.429,13.8v48.48c0,7.12,5.364,11.646,11.753,13.4a50.092,50.092,0,0,0,13.094,1.283H741.421c9.558,0,22.307,1.208,29.121-5.639a10.6,10.6,0,0,0,3.686-6.312A9.912,9.912,0,0,0,774.468,758.925Zm-24.187-56.976a6.758,6.758,0,0,1,.164,1.155c-.137-.444-.226-.786-.276-1.029ZM733.122,499c.113.071.23.144.373.23-.159-.1-.281-.166-.379-.23Zm-145.97-66.328c10.146-.228,17.985,8.4,18.2,18.2.229,10.145-8.4,17.984-18.2,18.2-10.145.228-17.984-8.4-18.2-18.2A18.383,18.383,0,0,1,587.152,432.672Zm-203.245,0c10.146-.228,17.985,8.4,18.2,18.2.229,10.145-8.4,17.984-18.2,18.2-10.145.228-17.984-8.4-18.2-18.2A18.383,18.383,0,0,1,383.907,432.672ZM266.621,498.585c.177-.78.228-.468,0,0Zm.217.415h466.01c.618,1.679-.105.3-.105.007v52.754A70.122,70.122,0,0,1,663.856,613.3c-38.123.322-69.091-31.774-69.408-69.409.066-7.783-5.968-11.647-12-11.6-6.033-.044-12.066,3.82-12,11.6A70.108,70.108,0,0,1,501.039,613.3c-38.124.322-69.092-31.774-69.41-69.409-.069-8.169-6.795-12.024-13.108-11.566-6.314-.458-13.041,3.4-13.11,11.566A70.108,70.108,0,0,1,336,613.3c-38.124.322-69.092-31.774-69.409-69.409v-43.9c0-.112.011-.542,0-.787A1.722,1.722,0,0,0,266.838,499Zm465.9,108.041v78.454c-.023-.3-.154-.06-.262.273H266.895c-.122-.327-.278-.574-.3-.241,0-.034,0-.067,0-.1V605.745a94.651,94.651,0,0,0,66.61,31.513c24.323,1.027,48.039-8.531,66.022-24.616a87.6,87.6,0,0,0,19.45-25.389,94.824,94.824,0,0,0,79.565,50.005c24.324,1.027,48.04-8.531,66.022-24.616A87.223,87.223,0,0,0,582.619,589.3a94.818,94.818,0,0,0,78.439,47.959c24.324,1.027,48.041-8.531,66.022-24.616C729.069,610.863,730.946,608.984,732.743,607.041ZM266.488,499.274h0c-.009.055-.019.1-.029.164C266.47,499.375,266.479,499.322,266.488,499.274Zm-.634-.274h.05C265.729,499.02,265.684,499,265.854,499Zm.425,186.768h-.219C265.435,685.426,265.861,685.5,266.279,685.768ZM248.868,702.02c0-.047,0-.084,0-.127.051.054.1.11.151.164a7.132,7.132,0,0,1-.154.979Zm-5.748,9.2c-1.153.709-1.274.4,0,0Zm.159,39.421c-1.52-.416-1.47-.964,0,0Zm5.612,8.036c.685,2.22.12,1.81,0,0Zm501.577-28.286v20.622h-501.6V710.769h501.6Zm5.591-19.251c1.518.416,1.468.963,0,0Z" fill="#474441"/>
        <path id="パス_7" data-name="パス 7" d="M664.718,363.229c1.443,13.167,10.644,24.667,24.144,27.172a30.5,30.5,0,0,0,34.467-19.9c6.174-18.111-8.771-35.794-20.1-48.42-4.2-4.681-12.771-4.681-16.971,0-8.541,9.518-19.093,21.782-21.317,35a12.671,12.671,0,0,0-.4,3.747A10.377,10.377,0,0,0,664.718,363.229Zm23.822-2.316c.078-.211.18-.519.316-.977.148-.4.237-.652.28-.785.318-.663.652-1.319.992-1.969a68.292,68.292,0,0,1,4.611-7.416q1.518,2.2,2.929,4.472c.788,1.273,1.5,2.587,2.2,3.913.171.336.325.68.488,1.02-.346-.663.421,1.247.538,1.638.02.1.038.167.055.248,0,.375-.015.75-.049,1.125.03-.777-.277.8-.586,1.4-1.04,2.043-2.619,2.87-4.767,3.433,1.611-.422-2.054-.385-2.01-.144q-1.085-.376-.834-.167c-.66-.408-1.845-1.119-1.764-.954q-.558-.513-1.074-1.071a8.774,8.774,0,0,0-.687-1.1C688.311,362.149,688.587,362.505,688.54,360.913Z" fill="#f65b5c"/>
        <path id="パス_8" data-name="パス 8" d="M266.488,499.274c-.009.048-.018.1-.029.165.01-.06.02-.109.029-.164Z" fill="#474441"/>
        <path id="パス_9" data-name="パス 9" d="M455.619,363.229C457.06,376.4,466.264,387.9,479.764,390.4a30.5,30.5,0,0,0,34.465-19.9c6.174-18.111-8.771-35.794-20.1-48.42-4.2-4.681-12.771-4.681-16.971,0-8.541,9.518-19.092,21.782-21.316,35a12.573,12.573,0,0,0-.4,3.747A10.322,10.322,0,0,0,455.619,363.229Zm23.821-2.316c.079-.211.18-.519.316-.977.148-.4.238-.652.279-.785.319-.663.653-1.319.994-1.969a68.149,68.149,0,0,1,4.612-7.416q1.515,2.2,2.927,4.472c.788,1.273,1.5,2.587,2.2,3.913.172.336.325.68.486,1.02-.346-.663.422,1.247.539,1.638.022.1.037.167.056.248,0,.375-.016.75-.048,1.125.027-.777-.278.8-.586,1.4-1.041,2.043-2.619,2.87-4.769,3.433,1.611-.422-2.053-.385-2.009-.144-.722-.251-1-.307-.833-.167-.662-.408-1.846-1.119-1.765-.954q-.56-.513-1.074-1.071a8.968,8.968,0,0,0-.689-1.1C479.212,362.149,479.488,362.505,479.44,360.913Z" fill="#f65b5c"/>
      </g>
    </g>
  </g>
</svg>
